<svg width="50" height="50" viewBox="0 0 50 50" fill="none" xmlns="http://www.w3.org/2000/svg">
<path d="M21.877 40.5977H24.8596C25.2648 40.5977 25.5935 40.269 25.5935 39.8638C25.5935 39.4585 25.2648 39.1299 24.8596 39.1299H21.877C21.4717 39.1299 21.1431 39.4585 21.1431 39.8638C21.1431 40.2691 21.4716 40.5977 21.877 40.5977Z" fill="#FF5E15"/>
<path d="M47.803 45.6063H46.3636V39.0296C46.3636 37.2529 44.9158 35.8074 43.1362 35.8074H40.6522L38.2986 31.7202C37.3289 30.0362 35.5177 28.9902 33.5718 28.9902H23.2028C21.7869 28.9902 20.4449 29.5297 19.4242 30.5093L13.8273 35.8805L6.58496 37.7979C4.84883 38.2575 3.63633 39.8309 3.63633 41.6239V45.6063H2.19688C0.985547 45.6063 0 46.592 0 47.8034C0 49.0148 0.985547 50.0004 2.19697 50.0004H15.9708C16.3761 50.0004 16.7047 49.6719 16.7047 49.2665C16.7047 48.8611 16.3761 48.5326 15.9708 48.5326H2.19697C1.79482 48.5326 1.46768 48.2055 1.46768 47.8033C1.46768 47.4012 1.79482 47.074 2.19697 47.074H47.803C48.2052 47.074 48.5323 47.4012 48.5323 47.8033C48.5323 48.2055 48.2052 48.5326 47.803 48.5326H18.9062C18.501 48.5326 18.1724 48.8612 18.1724 49.2665C18.1724 49.6718 18.501 50.0004 18.9062 50.0004H47.803C49.0145 50.0004 50 49.0148 50 47.8033C50 46.5919 49.0145 45.6063 47.803 45.6063ZM44.8959 39.0296V39.759H43.9314C43.5358 39.759 43.2141 39.4386 43.2141 39.0446V37.2791C44.1481 37.3201 44.8959 38.0884 44.8959 39.0296ZM20.4404 31.5682C21.1865 30.8522 22.1675 30.4579 23.2028 30.4579H27.6426V35.8074H16.0231L20.4404 31.5682ZM6.96064 39.2167L8.05127 38.9279V39.7207C8.05127 40.1617 7.69102 40.5205 7.24814 40.5205H5.36523C5.67754 39.8926 6.24814 39.4054 6.96064 39.2167ZM5.1041 41.9883H7.24814C8.50029 41.9883 9.51895 40.9711 9.51895 39.7207V38.5394L14.2939 37.2751H32.8354C33.2407 37.2751 33.5693 36.9466 33.5693 36.5412C33.5693 36.1358 33.2407 35.8073 32.8354 35.8073H29.1103V30.4578H33.5718C34.9942 30.4578 36.3182 31.2222 37.0267 32.4525L38.9586 35.8073H35.7709C35.3656 35.8073 35.037 36.1359 35.037 36.5412C35.037 36.9465 35.3655 37.2751 35.7709 37.2751H40.228H41.7464V39.0445C41.7464 40.2478 42.7267 41.2266 43.9315 41.2266H44.896V45.6062H41.2313C40.4852 43.7922 38.6937 42.5674 36.6942 42.5674C34.6949 42.5674 32.9034 43.7922 32.1572 45.6062H18.5134C17.7672 43.7922 15.9757 42.5674 13.9764 42.5674C11.9771 42.5674 10.1854 43.7922 9.43935 45.6062H5.1041V41.9883ZM39.5813 45.6063H33.807C34.4285 44.6488 35.5092 44.0352 36.6941 44.0352C37.8792 44.0353 38.9598 44.6488 39.5813 45.6063ZM16.8635 45.6063H11.0892C11.7106 44.6488 12.7913 44.0352 13.9764 44.0352C15.1613 44.0353 16.2419 44.6488 16.8635 45.6063Z" fill="#FF5E15"/>
<path d="M2.19697 4.39404H8.12969V10.5252C7.54238 11.0962 7.17666 11.8932 7.17666 12.7743C7.17666 14.5063 8.58809 15.9154 10.3229 15.9154C10.3459 15.9154 10.3687 15.9142 10.3915 15.9137L14.6187 20.132C14.6186 20.142 14.618 20.1519 14.618 20.1618C14.618 20.9977 14.9441 21.7834 15.5362 22.3743L19.3537 26.1838C19.607 26.4289 20.0682 26.4946 20.3904 26.1838L21.7157 24.8612L24.1495 27.2899C24.867 27.9562 25.8304 26.9339 25.1862 26.2511L22.7546 23.8245L23.7837 22.7976C24.0273 22.5568 24.0942 22.0685 23.7837 21.7586L19.9662 17.9491C19.3479 17.3322 18.5335 17.0281 17.7215 17.0358L13.4686 12.7918C13.4686 12.7859 13.469 12.7801 13.469 12.7742C13.469 11.8932 13.1033 11.0961 12.516 10.5251V4.39404H18.1447C18.55 4.39404 18.8786 4.06543 18.8786 3.66016C18.8786 3.25488 18.5501 2.92627 18.1447 2.92627H2.19697C1.79482 2.92627 1.46768 2.59912 1.46768 2.19697C1.46768 1.79482 1.79482 1.46768 2.19697 1.46768H47.803C48.2052 1.46768 48.5323 1.79482 48.5323 2.19697C48.5323 2.59912 48.2052 2.92627 47.803 2.92627H21.0802C20.6749 2.92627 20.3463 3.25478 20.3463 3.66016C20.3463 4.06553 20.6749 4.39404 21.0802 4.39404H32.9935V15.3447C32.4139 15.9127 32.0534 16.7029 32.0534 17.576V22.9634C32.0534 23.3687 32.382 23.6973 32.7873 23.6973H34.4528V26.9221C34.4528 27.3273 34.7813 27.656 35.1867 27.656C35.592 27.656 35.9206 27.3273 35.9206 26.9221V23.6973H37.5861C37.9914 23.6973 38.32 23.3687 38.32 22.9634V17.576C38.32 16.7029 37.9596 15.9127 37.3799 15.3446V4.39404H47.803C49.0145 4.39404 50 3.4085 50 2.19697C50 0.985547 49.0145 0 47.803 0H2.19697C0.985547 0 0 0.985644 0 2.19707C0 3.4085 0.985547 4.39404 2.19697 4.39404ZM8.64443 12.7742C8.64443 11.8515 9.39736 11.1008 10.3229 11.1008C11.2483 11.1008 12.0014 11.8515 12.0014 12.7742C12.0014 13.697 11.2484 14.4477 10.3229 14.4477C9.39736 14.4477 8.64443 13.697 8.64443 12.7742ZM22.2265 22.2781L19.8721 24.6275L16.5729 21.3354C15.0391 19.6221 17.4101 17.5388 18.9295 18.9881L22.2265 22.2781ZM16.1078 17.499C15.7402 17.7232 15.3451 18.0912 15.0827 18.5215L11.9906 15.4358C12.4047 15.1763 12.7545 14.8238 13.0095 14.4071L16.1078 17.499ZM11.0483 9.71836C10.6404 9.62109 10.0974 9.59619 9.59736 9.71836V4.39404H11.0483V9.71836ZM36.8522 22.2295H33.5211V17.5759C33.5211 16.6603 34.2683 15.9153 35.1866 15.9153C36.105 15.9153 36.8521 16.6603 36.8521 17.5759V22.2295H36.8522ZM35.9122 14.5332C35.5044 14.4356 34.9612 14.4105 34.4612 14.5332V4.39404H35.9122V14.5332Z" fill="#FF5E15"/>
</svg>
