<svg width="42" height="50" viewBox="0 0 42 50" fill="none" xmlns="http://www.w3.org/2000/svg">
<path d="M32.9496 21.7999C33.3463 21.8808 33.733 21.625 33.8141 21.2275C33.9952 20.3401 34.0869 19.4271 34.0869 18.5134C34.0869 11.0861 28.0625 5.04346 20.6575 5.04346C13.2524 5.04346 7.22803 11.0861 7.22803 18.5134C7.22803 25.9408 13.2524 31.9834 20.6575 31.9834C25.7048 31.9834 30.2799 29.187 32.5973 24.6854C32.7829 24.3248 32.642 23.8816 32.2825 23.6954C31.9231 23.5092 31.4811 23.6507 31.2956 24.0111C29.2306 28.0222 25.1544 30.5139 20.6576 30.5139C14.0603 30.5139 8.69316 25.1305 8.69316 18.5133C8.69316 11.8962 14.0603 6.51279 20.6576 6.51279C27.2548 6.51279 32.622 11.8962 32.622 18.5133C32.622 19.3282 32.5402 20.1422 32.3789 20.9327C32.2977 21.3303 32.5533 21.7185 32.9496 21.7999Z" fill="#FF5E15"/>
<path d="M28.8076 15.7808C28.7213 15.5142 28.4914 15.3203 28.2149 15.2805L23.4408 14.5946L21.3152 10.2523C21.0724 9.71271 20.2428 9.71281 20 10.2523L17.8744 14.5945L13.1003 15.2804C12.513 15.3454 12.2578 16.1372 12.6939 16.5348L16.1542 19.9043L15.3293 24.6704C15.2094 25.249 15.8796 25.7395 16.3932 25.4458L20.6576 23.186L24.9219 25.4458C25.4347 25.7395 26.106 25.249 25.9858 24.6704L25.1609 19.9043L28.6212 16.5348C28.8217 16.3397 28.894 16.0472 28.8076 15.7808ZM23.8627 19.1206C23.689 19.2897 23.6099 19.534 23.6512 19.7734L24.2871 23.4476L20.9997 21.7055C20.7856 21.5921 20.5294 21.5921 20.3153 21.7055L17.0279 23.4476L17.6638 19.7734C17.7052 19.534 17.626 19.2897 17.4523 19.1206L14.7846 16.5229L18.4651 15.994C18.7048 15.9595 18.912 15.8086 19.0188 15.5905L20.6575 12.2431L22.2961 15.5905C22.4029 15.8085 22.6101 15.9595 22.8498 15.994L26.5303 16.5229L23.8627 19.1206Z" fill="#FF5E15"/>
<path d="M41.2138 43.6729L34.0542 31.2346C37.1891 27.915 39.1149 23.4355 39.1149 18.513C39.1148 8.30487 30.8349 0 20.6574 0C17.5261 0 14.4325 0.800981 11.711 2.31641C11.3572 2.51341 11.2297 2.96063 11.4261 3.31546C11.6224 3.6701 12.0684 3.79804 12.422 3.60124C14.9265 2.20663 17.7743 1.46952 20.6574 1.46952C30.0271 1.46952 37.6497 9.11532 37.6497 18.5131C37.6497 27.911 30.0271 35.5568 20.6574 35.5568C11.2878 35.5568 3.66514 27.911 3.66514 18.513C3.66514 13.4713 5.87314 8.71596 9.72314 5.46632C10.0327 5.20506 10.0724 4.74152 9.81192 4.43113C9.55144 4.12064 9.08937 4.0806 8.77985 4.34206C4.59836 7.87151 2.20011 13.0366 2.20011 18.513C2.20011 23.4439 4.13229 27.9304 7.27673 31.2517L5.24903 34.7744C4.76313 35.5899 6.04884 36.3439 6.51775 35.5091L8.36105 32.3069C10.5663 34.2867 13.2471 35.7433 16.2082 36.4812L9.88722 47.4625L8.27032 42.3582C8.15575 41.9964 7.785 41.7819 7.41523 41.8631L2.19962 43.0107L4.80835 38.4785C5.01062 38.1271 4.89059 37.6778 4.54025 37.4749C4.18982 37.272 3.74191 37.3924 3.53964 37.7438L0.100915 43.7178C-0.225298 44.2426 0.292737 44.9556 0.892227 44.8029L7.07632 43.4421L8.99346 49.4942C9.16106 50.0896 10.0332 50.1866 10.326 49.639L17.7213 36.791C18.6777 36.945 19.6581 37.0262 20.6572 37.0262C21.6644 37.0262 22.6526 36.9436 23.6165 36.7871L28.0582 44.5036C28.1939 44.7394 28.4401 44.8711 28.6932 44.8711C28.8175 44.8711 28.9435 44.8393 29.0588 44.7725C29.4091 44.5696 29.5292 44.1203 29.3269 43.7689L25.1289 36.4757C28.0888 35.7341 30.7677 34.2742 32.9705 32.2916L39.1148 42.9658L33.8992 41.8182C33.5294 41.7369 33.1587 41.9515 33.0441 42.3134L31.4272 47.4177L31.0361 46.7383C30.8338 46.3869 30.3858 46.2666 30.0355 46.4694C29.6852 46.6724 29.5651 47.1216 29.7674 47.4731L30.9884 49.5943C31.2812 50.1419 32.1532 50.0448 32.3208 49.4495L34.238 43.3973L40.4221 44.7582C41.0222 44.9103 41.5398 44.1977 41.2138 43.6729Z" fill="#FF5E15"/>
</svg>
