<svg width="90" height="90" viewBox="0 0 90 90" fill="none" xmlns="http://www.w3.org/2000/svg">
<path d="M80.1562 43.332V23.3056C80.1538 21.0686 79.2641 18.9239 77.6823 17.3421C76.1005 15.7603 73.9558 14.8705 71.7188 14.8681H68.7799C67.5772 15.1291 57.1927 10.8029 55.86 10.4159C48.8612 7.77825 41.1417 7.77802 34.1428 10.4153C32.7539 10.7662 22.4868 15.1615 21.2201 14.8682H18.2812C16.0442 14.8707 13.8995 15.7604 12.3177 17.3422C10.7359 18.924 9.84619 21.0687 9.84375 23.3057V43.3321C8.56257 44.0716 7.49837 45.1349 6.7579 46.4155C6.01743 47.6961 5.62673 49.1488 5.625 50.6281V75.9384C5.63828 77.4215 6.23677 78.8394 7.29024 79.8835C8.3437 80.9275 9.76688 81.5133 11.2501 81.5133C12.7333 81.5132 14.1564 80.9275 15.2099 79.8834C16.2633 78.8393 16.8618 77.4214 16.875 75.9383V71.7203C16.8755 71.3475 17.0238 70.9901 17.2874 70.7265C17.551 70.4629 17.9084 70.3146 18.2812 70.3141H71.7188C72.0916 70.3146 72.449 70.4629 72.7126 70.7265C72.9762 70.9901 73.1245 71.3475 73.125 71.7203V75.9384C73.125 77.4302 73.7176 78.861 74.7725 79.9159C75.8274 80.9708 77.2582 81.5634 78.75 81.5634C80.2418 81.5634 81.6726 80.9708 82.7275 79.9159C83.7824 78.861 84.375 77.4302 84.375 75.9384V50.628C84.3733 49.1487 83.9826 47.6959 83.2421 46.4154C82.5016 45.1348 81.4374 44.0714 80.1562 43.332ZM12.6562 23.3057C12.658 21.8143 13.2511 20.3846 14.3057 19.3301C15.3602 18.2755 16.7899 17.6824 18.2812 17.6807C20.2667 17.8565 22.2677 17.6739 24.1885 17.1416L35.1315 13.0479C41.4932 10.6505 48.5099 10.651 54.8712 13.0493L65.8109 17.1417C67.7331 17.6676 69.7331 17.8501 71.7188 17.6806C73.2101 17.6824 74.6399 18.2756 75.6944 19.3301C76.7489 20.3846 77.342 21.8144 77.3438 23.3057V42.3175C75.4727 42.1757 73.5955 42.1333 71.72 42.1904L71.7202 33.7537C71.7184 32.2624 71.1253 30.8327 70.0707 29.7781C69.0162 28.7236 67.5865 28.1304 66.0952 28.1287H54.8438C53.3524 28.1304 51.9227 28.7236 50.8682 29.7781C49.8136 30.8327 49.2205 32.2624 49.2188 33.7537V42.1905H40.7812V33.7537C40.7795 32.2624 40.1864 30.8327 39.1318 29.7781C38.0773 28.7236 36.6476 28.1304 35.1562 28.1287H23.9048C22.4135 28.1304 20.9838 28.7236 19.9293 29.7781C18.8747 30.8327 18.2816 32.2624 18.2798 33.7537V42.1905H14.0625C13.591 42.1934 13.1206 42.2359 12.6562 42.3176V23.3057ZM68.9077 42.1905H52.0312V33.7537C52.032 33.008 52.3286 32.2931 52.8558 31.7658C53.3831 31.2385 54.0981 30.942 54.8438 30.9412H66.0952C66.8408 30.942 67.5558 31.2385 68.0831 31.7658C68.6104 32.2931 68.9069 33.008 68.9077 33.7537V42.1905ZM37.9688 42.1905H21.0923V33.7537C21.0931 33.008 21.3896 32.2931 21.9169 31.7658C22.4442 31.2385 23.1592 30.942 23.9048 30.9412H35.1562C35.9019 30.942 36.6169 31.2385 37.1442 31.7658C37.6715 32.2931 37.968 33.008 37.9688 33.7537V42.1905ZM14.0625 45.003C23.8731 45.0038 75.9375 45.003 75.9375 45.003C77.4288 45.0047 78.8586 45.5978 79.9131 46.6524C80.9676 47.7069 81.5608 49.1366 81.5625 50.628V59.0641H8.4375V50.628C8.4392 49.1366 9.03238 47.7069 10.0869 46.6524C11.1414 45.5978 12.5712 45.0047 14.0625 45.003ZM78.75 78.7509C78.0043 78.7502 77.2894 78.4536 76.7621 77.9263C76.2348 77.399 75.9382 76.6841 75.9375 75.9384V71.7203C75.9363 70.6018 75.4914 69.5295 74.7005 68.7386C73.9096 67.9477 72.8373 67.5028 71.7188 67.5016H18.2812C17.1627 67.5028 16.0904 67.9477 15.2995 68.7386C14.5086 69.5295 14.0637 70.6018 14.0625 71.7203V75.9384C14.0537 76.6786 13.7535 77.3854 13.227 77.9057C12.7005 78.426 11.9902 78.7178 11.25 78.7178C10.5097 78.7178 9.79937 78.426 9.27289 77.9057C8.7464 77.3853 8.44624 76.6785 8.4375 75.9383V61.8766H81.5625V75.9384C81.5618 76.6841 81.2652 77.399 80.7379 77.9263C80.2106 78.4536 79.4957 78.7502 78.75 78.7509Z" fill="#E5DA38"/>
</svg>
