<svg width="90" height="90" viewBox="0 0 90 90" fill="none" xmlns="http://www.w3.org/2000/svg">
<path d="M25.9276 77.5098C26.1913 77.7736 26.5489 77.9218 26.9218 77.9219H76.6103C76.795 77.9219 76.9778 77.8856 77.1485 77.8149C77.3191 77.7443 77.4742 77.6407 77.6048 77.5101C77.7353 77.3795 77.8389 77.2245 77.9096 77.0538C77.9802 76.8832 78.0166 76.7003 78.0165 76.5156V20.2656C78.0166 20.0809 77.9802 19.8981 77.9096 19.7274C77.8389 19.5568 77.7353 19.4017 77.6048 19.2711C77.4742 19.1406 77.3191 19.037 77.1485 18.9663C76.9778 18.8957 76.795 18.8593 76.6103 18.8594H26.9445C26.7598 18.8593 26.577 18.8957 26.4063 18.9663C26.2357 19.037 26.0806 19.1406 25.9501 19.2711C25.8195 19.4017 25.7159 19.5568 25.6452 19.7274C25.5746 19.8981 25.5382 20.0809 25.5383 20.2656L25.5329 33.751C25.5329 33.8102 25.5214 61.8555 25.5215 61.9054L25.5156 76.5156C25.5156 76.7003 25.5519 76.8832 25.6226 77.0538C25.6933 77.2243 25.797 77.3793 25.9276 77.5098ZM54.8423 21.6718V32.345H44.9985C44.6302 32.352 44.2793 32.5033 44.0213 32.7663C43.7632 33.0292 43.6187 33.3829 43.6187 33.7513C43.6187 34.1197 43.7633 34.4734 44.0213 34.7364C44.2793 34.9993 44.6302 35.1506 44.9986 35.1575H54.8423V39.3763C54.8493 39.7446 55.0005 40.0955 55.2635 40.3535C55.5264 40.6115 55.8801 40.7561 56.2485 40.7561C56.617 40.7561 56.9706 40.6115 57.2336 40.3535C57.4966 40.0955 57.6478 39.7446 57.6548 39.3762C57.6559 35.7041 57.6539 25.4709 57.6548 21.6718H75.204V49.22H57.6548V46.4075C57.6476 46.0393 57.4962 45.6886 57.2333 45.4308C56.9703 45.1729 56.6167 45.0285 56.2485 45.0285C55.8802 45.0285 55.5266 45.173 55.2637 45.4308C55.0007 45.6887 54.8494 46.0394 54.8423 46.4076V50.6263C54.8422 50.811 54.8785 50.9939 54.9492 51.1645C55.0199 51.3351 55.1234 51.4902 55.254 51.6208C55.3846 51.7514 55.5397 51.8549 55.7103 51.9256C55.8809 51.9963 56.0638 52.0326 56.2485 52.0325H75.204V60.47H69.2426C68.8731 60.4753 68.5204 60.6257 68.261 60.8889C68.0015 61.152 67.8561 61.5067 67.8561 61.8763C67.8561 62.2459 68.0015 62.6006 68.261 62.8637C68.5204 63.1269 68.8731 63.2773 69.2426 63.2825H75.204V75.1093H57.6548V63.2825H61.8735C62.2417 63.2754 62.5924 63.124 62.8503 62.8611C63.1081 62.5981 63.2526 62.2445 63.2526 61.8762C63.2525 61.508 63.1081 61.1544 62.8502 60.8914C62.5923 60.6285 62.2416 60.4772 61.8734 60.47H40.7798C40.4104 60.4755 40.058 60.6261 39.7988 60.8892C39.5395 61.1524 39.3942 61.5069 39.3942 61.8763C39.3943 62.2457 39.5396 62.6003 39.7988 62.8634C40.0581 63.1265 40.4105 63.2771 40.7798 63.2825H54.8423V75.1093H28.3288L28.3335 63.2825H33.7485C34.117 63.2757 34.4681 63.1246 34.7262 62.8616C34.9844 62.5986 35.129 62.2448 35.129 61.8763C35.129 61.5077 34.9844 61.1539 34.7262 60.8909C34.468 60.628 34.1169 60.4768 33.7484 60.47H28.3347L28.3447 35.1575H37.9673C38.3366 35.1521 38.689 35.0015 38.9482 34.7384C39.2075 34.4752 39.3528 34.1207 39.3528 33.7513C39.3528 33.3819 39.2075 33.0273 38.9482 32.7642C38.689 32.5011 38.3366 32.3505 37.9673 32.345H28.3458L28.35 21.6718H54.8423Z" fill="#E5DA38"/>
<path d="M82.9688 12.4039H21.8772C20.0048 2.70356 5.8507 3.80464 5.625 13.8103V76.1878C5.62741 78.3581 6.49066 80.4389 8.02534 81.9736C9.56003 83.5083 11.6408 84.3716 13.8112 84.374H82.9688C83.1534 84.374 83.3363 84.3377 83.507 84.267C83.6776 84.1964 83.8326 84.0928 83.9632 83.9622C84.0938 83.8316 84.1974 83.6766 84.2681 83.5059C84.3387 83.3353 84.375 83.1524 84.375 82.9677V13.8101C84.375 13.6255 84.3387 13.4426 84.2681 13.2719C84.1974 13.1013 84.0938 12.9463 83.9632 12.8157C83.8326 12.6851 83.6776 12.5815 83.507 12.5108C83.3363 12.4402 83.1534 12.4038 82.9688 12.4039ZM8.4375 13.8101C8.45068 12.3935 9.02269 11.0394 10.0291 10.0423C11.0355 9.04524 12.3949 8.48587 13.8116 8.48589C15.2283 8.4859 16.5877 9.0453 17.5941 10.0424C18.6004 11.0395 19.1724 12.3936 19.1856 13.8103V70.0176C17.6891 68.7344 15.7828 68.029 13.8115 68.029C11.8402 68.0291 9.93395 68.7345 8.4375 70.0177V13.8101ZM81.5625 81.5615H13.8112C12.7484 81.5613 11.7095 81.2461 10.8259 80.6555C9.94231 80.0649 9.25366 79.2256 8.84704 78.2437C8.44042 77.2618 8.3341 76.1813 8.54153 75.139C8.74895 74.0967 9.2608 73.1392 10.0123 72.3878C10.7639 71.6363 11.7214 71.1246 12.7638 70.9173C13.8062 70.71 14.8866 70.8165 15.8685 71.2232C16.8503 71.6299 17.6895 72.3187 18.28 73.2024C18.8704 74.0861 19.1856 75.125 19.1856 76.1878C19.1928 76.556 19.3441 76.9067 19.607 77.1646C19.87 77.4224 20.2236 77.5668 20.5919 77.5668C20.9601 77.5668 21.3137 77.4224 21.5767 77.1645C21.8396 76.9066 21.9909 76.5559 21.9981 76.1877V15.2164H81.5625V81.5615Z" fill="#E5DA38"/>
</svg>
