<svg width="90" height="90" viewBox="0 0 90 90" fill="none" xmlns="http://www.w3.org/2000/svg">
<path d="M12.6562 5.625C12.2833 5.625 11.9256 5.77316 11.6619 6.03688C11.3982 6.3006 11.25 6.65829 11.25 7.03125V11.25H7.03125C6.65829 11.25 6.3006 11.3982 6.03688 11.6619C5.77316 11.9256 5.625 12.2833 5.625 12.6562C5.625 13.0292 5.77316 13.3869 6.03688 13.6506C6.3006 13.9143 6.65829 14.0625 7.03125 14.0625H12.6562C13.0292 14.0625 13.3869 13.9143 13.6506 13.6506C13.9143 13.3869 14.0625 13.0292 14.0625 12.6562V7.03125C14.0625 6.65829 13.9143 6.3006 13.6506 6.03688C13.3869 5.77316 13.0292 5.625 12.6562 5.625Z" fill="#E5DA38"/>
<path d="M12.6562 27.4219C13.0292 27.4219 13.3869 27.2737 13.6506 27.01C13.9143 26.7463 14.0625 26.3886 14.0625 26.0156V21.2695C14.0625 20.8966 13.9143 20.5389 13.6506 20.2752C13.3869 20.0114 13.0292 19.8633 12.6562 19.8633C12.2833 19.8633 11.9256 20.0114 11.6619 20.2752C11.3982 20.5389 11.25 20.8966 11.25 21.2695V26.0156C11.25 26.3886 11.3982 26.7463 11.6619 27.01C11.9256 27.2737 12.2833 27.4219 12.6562 27.4219Z" fill="#E5DA38"/>
<path d="M14.0625 49.7463C14.0553 49.378 13.904 49.0273 13.641 48.7695C13.3781 48.5116 13.0245 48.3672 12.6562 48.3672C12.2879 48.3672 11.9343 48.5117 11.6714 48.7695C11.4085 49.0274 11.2572 49.3781 11.25 49.7463V54.4923C11.2572 54.8606 11.4085 55.2113 11.6715 55.4691C11.9344 55.727 12.288 55.8714 12.6563 55.8714C13.0246 55.8714 13.3782 55.7269 13.6411 55.4691C13.904 55.2112 14.0553 54.8605 14.0625 54.4923V49.7463Z" fill="#E5DA38"/>
<path d="M12.6562 62.5781C12.2833 62.5781 11.9256 62.7263 11.6619 62.99C11.3982 63.2537 11.25 63.6114 11.25 63.9844V68.7305C11.25 69.1034 11.3982 69.4611 11.6619 69.7248C11.9256 69.9886 12.2833 70.1367 12.6562 70.1367C13.0292 70.1367 13.3869 69.9886 13.6506 69.7248C13.9143 69.4611 14.0625 69.1034 14.0625 68.7305V63.9844C14.0625 63.6114 13.9143 63.2537 13.6506 62.99C13.3869 62.7263 13.0292 62.5781 12.6562 62.5781Z" fill="#E5DA38"/>
<path d="M78.75 26.0158V21.2697C78.7428 20.9015 78.5915 20.5508 78.3285 20.2929C78.0656 20.0351 77.712 19.8906 77.3437 19.8906C76.9754 19.8906 76.6218 20.0351 76.3589 20.293C76.096 20.5508 75.9447 20.9016 75.9375 21.2698V26.0158C75.9447 26.384 76.096 26.7347 76.3589 26.9926C76.6219 27.2504 76.9755 27.3949 77.3438 27.3949C77.712 27.3949 78.0656 27.2504 78.3286 26.9926C78.5915 26.7347 78.7428 26.384 78.75 26.0158Z" fill="#E5DA38"/>
<path d="M11.25 31.2891V38.8477C11.2501 39.0959 11.3158 39.3396 11.4405 39.5542C11.5652 39.7687 11.7445 39.9465 11.9601 40.0694C12.1758 40.1922 12.42 40.2559 12.6682 40.2538C12.9164 40.2517 13.1596 40.184 13.3731 40.0576L18.2812 37.15V77.3438C18.2812 77.7168 18.4294 78.0745 18.6931 78.3382C18.9569 78.6019 19.3145 78.7501 19.6875 78.7501C20.1955 78.3553 56.5643 79.0379 70.313 78.7492C70.4976 78.7493 70.6804 78.713 70.851 78.6425C71.0216 78.5719 71.1766 78.4684 71.3071 78.3379C71.4377 78.2073 71.5413 78.0524 71.6119 77.8818C71.6825 77.7112 71.7188 77.5284 71.7188 77.3438V37.15L76.6269 40.0576C76.8409 40.1809 77.0835 40.246 77.3305 40.2466C77.5775 40.2471 77.8204 40.1831 78.035 40.0608C78.2496 39.9385 78.4285 39.7622 78.5539 39.5494C78.6793 39.3366 78.7469 39.0947 78.75 38.8477V31.2891C78.7499 31.042 78.6848 30.7992 78.5611 30.5853C78.4374 30.3713 78.2596 30.1937 78.0455 30.0703L50.2584 14.0626H54.4922C54.8614 14.0569 55.2135 13.9062 55.4726 13.6431C55.7316 13.38 55.8768 13.0256 55.8768 12.6563C55.8768 12.2871 55.7316 11.9327 55.4726 11.6696C55.2135 11.4065 54.8614 11.2558 54.4922 11.2501H49.7461C49.5326 11.2479 49.3216 11.2955 49.1297 11.389C48.9378 11.4825 48.7703 11.6195 48.6405 11.789C48.5108 11.9585 48.4222 12.1559 48.382 12.3656C48.3418 12.5752 48.3509 12.7914 48.4087 12.9969L45.7017 11.4375C45.4882 11.3147 45.2463 11.2501 45 11.2501C44.7537 11.2501 44.5118 11.3147 44.2983 11.4375L41.5913 12.9969C41.649 12.7914 41.6581 12.5753 41.6179 12.3656C41.5776 12.156 41.4891 11.9586 41.3593 11.7892C41.2295 11.6197 41.0621 11.4827 40.8702 11.3891C40.6784 11.2956 40.4674 11.248 40.2539 11.2501H35.5078C35.1395 11.2571 34.7886 11.4083 34.5306 11.6713C34.2726 11.9343 34.128 12.288 34.128 12.6564C34.128 13.0248 34.2726 13.3785 34.5306 13.6414C34.7887 13.9044 35.1396 14.0556 35.5079 14.0626H39.7416L11.9545 30.0703C11.7404 30.1937 11.5626 30.3713 11.4389 30.5853C11.3152 30.7992 11.2501 31.042 11.25 31.2891ZM37.9688 75.9376V57.6563H52.0312V75.9376C52.0312 75.9376 39.4572 75.9365 37.9688 75.9376ZM68.9062 75.9376C65.8516 75.9363 57.9995 75.9385 54.8438 75.9376V56.2501C54.8438 55.8771 54.6956 55.5194 54.4319 55.2557C54.1681 54.992 53.8105 54.8438 53.4375 54.8438H36.5625C36.1895 54.8438 35.8319 54.992 35.5681 55.2557C35.3044 55.5194 35.1562 55.8771 35.1562 56.2501V75.9376C31.9919 75.9341 24.1818 75.9401 21.0938 75.9376V35.4839L45 21.3218L68.9062 35.4839V75.9376ZM14.0625 32.1021L45 14.2796L75.9375 32.1021V36.3799L45.7169 18.4777C45.4999 18.3491 45.2523 18.2812 45 18.2812C44.7477 18.2812 44.5001 18.3491 44.2831 18.4777L14.0625 36.3799V32.1021Z" fill="#E5DA38"/>
<path d="M78.75 49.7463C78.7428 49.378 78.5915 49.0273 78.3285 48.7695C78.0656 48.5116 77.712 48.3672 77.3437 48.3672C76.9754 48.3672 76.6218 48.5117 76.3589 48.7695C76.096 49.0274 75.9447 49.3781 75.9375 49.7463V54.4923C75.9447 54.8606 76.096 55.2113 76.359 55.4691C76.6219 55.727 76.9755 55.8714 77.3438 55.8714C77.7121 55.8714 78.0657 55.7269 78.3286 55.4691C78.5915 55.2112 78.7428 54.8605 78.75 54.4923V49.7463Z" fill="#E5DA38"/>
<path d="M77.3438 62.5781C76.9708 62.5781 76.6131 62.7263 76.3494 62.99C76.0857 63.2537 75.9375 63.6114 75.9375 63.9844V68.7305C75.9375 69.1034 76.0857 69.4611 76.3494 69.7248C76.6131 69.9886 76.9708 70.1367 77.3438 70.1367C77.7167 70.1367 78.0744 69.9886 78.3381 69.7248C78.6018 69.4611 78.75 69.1034 78.75 68.7305V63.9844C78.75 63.6114 78.6018 63.2537 78.3381 62.99C78.0744 62.7263 77.7167 62.5781 77.3438 62.5781Z" fill="#E5DA38"/>
<path d="M82.9688 11.2502H78.75V7.0314C78.7428 6.66319 78.5915 6.31249 78.3285 6.05463C78.0656 5.79677 77.712 5.65233 77.3437 5.65234C76.9754 5.65235 76.6218 5.79681 76.3589 6.05469C76.096 6.31256 75.9447 6.66328 75.9375 7.03149V12.6564C75.9375 13.0294 76.0857 13.387 76.3494 13.6508C76.6131 13.9145 76.9708 14.0627 77.3438 14.0627H82.9688C83.337 14.0555 83.6877 13.9042 83.9455 13.6412C84.2034 13.3783 84.3479 13.0247 84.3479 12.6564C84.3479 12.2881 84.2034 11.9345 83.9455 11.6716C83.6877 11.4086 83.337 11.2573 82.9688 11.2502Z" fill="#E5DA38"/>
<path d="M68.7306 14.0625C69.0988 14.0553 69.4495 13.904 69.7074 13.641C69.9653 13.3781 70.1097 13.0245 70.1097 12.6562C70.1097 12.2879 69.9652 11.9343 69.7073 11.6714C69.4495 11.4085 69.0988 11.2572 68.7305 11.25H63.9845C63.6163 11.2572 63.2656 11.4085 63.0078 11.6715C62.7499 11.9344 62.6055 12.288 62.6055 12.6563C62.6055 13.0246 62.7499 13.3782 63.0078 13.6411C63.2657 13.904 63.6164 14.0553 63.9846 14.0625H68.7306Z" fill="#E5DA38"/>
<path d="M26.0158 14.0625C26.384 14.0553 26.7347 13.904 26.9926 13.641C27.2504 13.3781 27.3949 13.0245 27.3948 12.6562C27.3948 12.2879 27.2504 11.9343 26.9925 11.6714C26.7346 11.4085 26.3839 11.2572 26.0157 11.25H21.2697C20.9015 11.2572 20.5508 11.4085 20.2929 11.6715C20.0351 11.9344 19.8906 12.288 19.8906 12.6563C19.8906 13.0246 20.0351 13.3782 20.293 13.6411C20.5508 13.904 20.9016 14.0553 21.2698 14.0625H26.0158Z" fill="#E5DA38"/>
<path d="M82.9688 75.9375H77.3438C76.9708 75.9375 76.6131 76.0857 76.3494 76.3494C76.0857 76.6131 75.9375 76.9708 75.9375 77.3438V82.9688C75.9375 83.3417 76.0857 83.6994 76.3494 83.9631C76.6131 84.2268 76.9708 84.375 77.3438 84.375C77.7167 84.375 78.0744 84.2268 78.3381 83.9631C78.6018 83.6994 78.75 83.3417 78.75 82.9688V78.75H82.9688C83.337 78.7428 83.6877 78.5915 83.9455 78.3286C84.2034 78.0656 84.3479 77.712 84.3479 77.3438C84.3479 76.9755 84.2034 76.6219 83.9455 76.3589C83.6877 76.096 83.337 75.9447 82.9688 75.9375Z" fill="#E5DA38"/>
<path d="M7.03145 78.75H11.2502V82.9687C11.2574 83.337 11.4087 83.6877 11.6717 83.9455C11.9346 84.2034 12.2882 84.3478 12.6565 84.3478C13.0248 84.3478 13.3784 84.2033 13.6413 83.9455C13.9042 83.6876 14.0555 83.3369 14.0627 82.9687V77.3437C14.0627 76.9708 13.9145 76.6131 13.6508 76.3494C13.3871 76.0857 13.0294 75.9375 12.6564 75.9375H7.03145C6.66323 75.9447 6.31252 76.096 6.05466 76.3589C5.79679 76.6219 5.65234 76.9755 5.65234 77.3437C5.65234 77.712 5.79679 78.0656 6.05466 78.3286C6.31252 78.5915 6.66323 78.7428 7.03145 78.75Z" fill="#E5DA38"/>
<path d="M42.1877 66.0938C41.8194 66.1009 41.4687 66.2523 41.2109 66.5152C40.953 66.7782 40.8086 67.1318 40.8086 67.5C40.8086 67.8683 40.9531 68.2219 41.2109 68.4848C41.4688 68.7478 41.8195 68.8991 42.1877 68.9062C42.556 68.8991 42.9067 68.7477 43.1645 68.4848C43.4224 68.2218 43.5668 67.8682 43.5668 67.5C43.5668 67.1317 43.4223 66.7781 43.1645 66.5152C42.9066 66.2522 42.5559 66.1009 42.1877 66.0938Z" fill="#E5DA38"/>
<path d="M35.1562 39.375C35.1592 41.9848 36.1972 44.4869 38.0427 46.3323C39.8881 48.1778 42.3902 49.2158 45 49.2188C58.0283 48.7566 58.025 29.9914 44.9998 29.5312C42.39 29.5342 39.888 30.5723 38.0426 32.4177C36.1972 34.2631 35.1592 36.7652 35.1562 39.375ZM52.0312 39.375C51.7355 48.6671 38.2631 48.6649 37.9687 39.3748C38.2645 30.0829 51.7369 30.0851 52.0312 39.375Z" fill="#E5DA38"/>
</svg>
