<svg width="40" height="40" viewBox="0 0 40 40" fill="none" xmlns="http://www.w3.org/2000/svg">
<path d="M36.092 9.37598C36.092 9.8075 35.7423 10.1572 35.3108 10.1572C34.8793 10.1572 34.5295 9.8075 34.5295 9.37598C34.5295 8.94446 34.8793 8.59473 35.3108 8.59473C35.7423 8.59473 36.092 8.94446 36.092 9.37598Z" fill="#FF5E15"/>
<path d="M31.4042 9.37598C31.4042 9.8075 31.0545 10.1572 30.623 10.1572C30.1915 10.1572 29.8414 9.8075 29.8414 9.37598C29.8414 8.94446 30.1915 8.59473 30.623 8.59473C31.0545 8.59473 31.4042 8.94446 31.4042 9.37598Z" fill="#FF5E15"/>
<path d="M26.7164 9.37598C26.7164 9.8075 26.3663 10.1572 25.9348 10.1572C25.5033 10.1572 25.1536 9.8075 25.1536 9.37598C25.1536 8.94446 25.5033 8.59473 25.9348 8.59473C26.3663 8.59473 26.7164 8.94446 26.7164 9.37598Z" fill="#FF5E15"/>
<path d="M30.623 0C25.453 0 21.2471 4.20595 21.2471 9.37595C21.2471 11.2503 21.7994 13.0484 22.8489 14.6012L21.287 19.286C21.1872 19.5859 21.2779 19.9161 21.5165 20.1234C21.7558 20.3312 22.0961 20.3727 22.3777 20.232L26.8977 17.9719C28.0848 18.4897 29.3361 18.7519 30.623 18.7519C35.7927 18.7519 39.9989 14.5456 39.9989 9.37595C39.9989 4.20595 35.7927 0 30.623 0ZM30.623 17.1891C29.4453 17.1891 28.3015 16.9245 27.2242 16.4023C27.006 16.2967 26.7509 16.2983 26.5339 16.4066L23.3662 17.9905L24.4563 14.7205C24.5369 14.4788 24.4947 14.2133 24.3434 14.0085C23.34 12.6526 22.8096 11.0508 22.8096 9.37595C22.8096 5.06777 26.3145 1.56281 30.623 1.56281C34.9312 1.56281 38.4361 5.06777 38.4361 9.37595C38.4361 13.6841 34.9312 17.1891 30.623 17.1891Z" fill="#FF5E15"/>
<path d="M15.4652 25.1584C15.4652 25.59 15.1154 25.94 14.6839 25.94C14.2524 25.94 13.9026 25.59 13.9026 25.1584C13.9026 24.7269 14.2524 24.3772 14.6839 24.3772C15.1154 24.3772 15.4652 24.7269 15.4652 25.1584Z" fill="#FF5E15"/>
<path d="M27.1031 24.6576C26.7982 24.3524 26.3032 24.3527 25.998 24.6576L22.2529 28.4021C21.7213 28.934 20.9006 29.0423 20.3019 28.6599C19.4416 28.1103 18.6008 27.5097 17.8034 26.8747C17.4659 26.6061 16.9742 26.662 16.7054 26.9995C16.4368 27.3373 16.4927 27.8286 16.8302 28.0975C17.67 28.7658 18.5548 29.3982 19.4608 29.9768C20.6733 30.751 22.3127 30.5533 23.3582 29.5068L26.5504 26.315L33.8877 33.6514L30.9968 36.5414C29.131 38.4079 26.3246 38.96 24.0134 37.9157C11.7243 32.362 5.32961 22.9464 2.12922 16.0256C1.03028 13.6492 1.55793 10.7867 3.44239 8.9025L6.29 6.05428L13.6274 13.391L10.4349 16.5832C9.38846 17.6296 9.19132 19.269 9.96585 20.4809C10.5182 21.3458 11.1203 22.1926 11.7551 22.998C12.0221 23.3371 12.5135 23.3953 12.8522 23.128C13.1913 22.861 13.2496 22.3696 12.9822 22.0309C12.3792 21.2658 11.8073 20.4611 11.2824 19.6395C10.8997 19.0408 11.008 18.2202 11.54 17.6882L15.2848 13.9434C15.5897 13.6382 15.59 13.1435 15.2848 12.8384L6.84267 4.39687C6.5375 4.09199 6.04281 4.09199 5.73763 4.39687L2.33735 7.79745C-0.00823948 10.1427 -0.661623 13.7133 0.711062 16.6818C5.26766 26.5353 12.9899 34.6487 23.3701 39.3396C26.287 40.658 29.7935 39.9558 32.1019 37.6465L35.5452 34.2041C35.85 33.8989 35.8503 33.4039 35.5452 33.0991L27.1031 24.6576Z" fill="#FF5E15"/>
</svg>
