<svg width="44" height="40" viewBox="0 0 44 40" fill="none" xmlns="http://www.w3.org/2000/svg">
<path d="M43.3899 39.6856C43.4481 39.5887 43.4769 39.4758 43.4783 39.363V15.7461C43.4936 15.5275 43.4102 15.304 43.2336 15.1689L37.534 10.7154V4.88616C37.534 4.53443 37.2489 4.24928 36.8971 4.24928H29.2587L25.3769 1.21625C23.3114 -0.397797 20.4196 -0.406119 18.3449 1.1957L14.3895 4.24928H6.58125C6.22943 4.24928 5.94436 4.53443 5.94436 4.88616V10.7689L0.249567 15.1654C0.0941668 15.2841 -0.00026247 15.4753 7.72034e-05 15.6709V21.2755C7.72034e-05 21.6273 0.285148 21.9124 0.636965 21.9124C0.988782 21.9124 1.27385 21.6273 1.27385 21.2755V16.7561L17.2896 25.7026L1.27385 38.0668V24.2476C1.27385 23.8957 0.988782 23.6107 0.636965 23.6107C0.285148 23.6107 7.72034e-05 23.8957 7.72034e-05 24.2476V39.363C-0.00552741 39.7049 0.294829 40.0059 0.636965 39.9999H42.8414C43.0629 40.0006 43.2796 39.8781 43.3899 39.6856ZM41.7599 15.634L37.534 18.0148V12.332L41.7599 15.634ZM19.1233 2.20393C20.7371 0.95818 22.9862 0.964718 24.5925 2.2199L27.1898 4.24928H16.4738L19.1233 2.20393ZM14.6064 5.52305H14.6071H14.6077H36.2602V18.7324L32.2371 20.999C31.9307 21.1716 31.8222 21.56 31.9949 21.8665C32.1684 22.1759 32.5615 22.2797 32.8624 22.1088L42.2045 16.8456V38.0572L35.9436 33.165C35.6665 32.9485 35.2662 32.9975 35.0495 33.2747C34.833 33.552 34.8821 33.9522 35.1593 34.1687L40.9919 38.7262H2.50415L19.1234 25.8962C20.7373 24.6503 22.9863 24.657 24.5926 25.9122L24.8993 26.1518C24.8998 26.1522 24.9001 26.1524 24.9005 26.1528L32.8842 32.391C33.1615 32.6075 33.5616 32.5585 33.7782 32.2813C33.9948 32.004 33.9457 31.6038 33.6685 31.3872L26.431 25.7321L30.3468 23.526C30.6532 23.3534 30.7618 22.965 30.5891 22.6585C30.4166 22.3521 30.0283 22.2437 29.7216 22.4162L25.343 24.883C23.2938 23.3061 20.4478 23.2955 18.3874 24.8567L7.21814 18.6176V5.52305H14.6064ZM5.94436 17.906L1.7899 15.5853L5.94436 12.378V17.906Z" fill="#FF5E15"/>
<path d="M15.8374 10.4483H27.641C27.9928 10.4483 28.2779 10.1632 28.2779 9.81145C28.2779 9.45972 27.9928 9.17456 27.641 9.17456H15.8374C15.4855 9.17456 15.2005 9.45972 15.2005 9.81145C15.2005 10.1632 15.4855 10.4483 15.8374 10.4483Z" fill="#FF5E15"/>
<path d="M12.016 19.11H31.4623C31.8142 19.11 32.0992 18.8248 32.0992 18.4731C32.0992 18.1213 31.8142 17.8362 31.4623 17.8362H12.016C11.6642 17.8362 11.3791 18.1213 11.3791 18.4731C11.3791 18.8248 11.6642 19.11 12.016 19.11Z" fill="#FF5E15"/>
<path d="M12.0206 14.7513H17.154C17.5058 14.7513 17.7909 14.4662 17.7909 14.1144C17.7909 13.7627 17.5058 13.4775 17.154 13.4775H12.0206C11.6688 13.4775 11.3837 13.7627 11.3837 14.1144C11.3837 14.4662 11.6688 14.7513 12.0206 14.7513Z" fill="#FF5E15"/>
<path d="M19.9061 14.1144C19.9061 14.4662 20.1912 14.7513 20.543 14.7513H31.4578C31.8096 14.7513 32.0946 14.4662 32.0946 14.1144C32.0946 13.7627 31.8096 13.4775 31.4578 13.4775H20.543C20.1912 13.4775 19.9061 13.7627 19.9061 14.1144Z" fill="#FF5E15"/>
</svg>
