<svg width="40" height="40" viewBox="0 0 40 40" fill="none" xmlns="http://www.w3.org/2000/svg">
<path d="M35.7321 7.65131H36.968C37.3991 7.65131 37.7487 7.30169 37.7487 6.87057C37.7487 6.43945 37.3991 6.08983 36.968 6.08983H34.0012C33.5701 6.08983 33.2205 6.43945 33.2205 6.87057V9.83737C33.2205 10.2685 33.5701 10.6181 34.0012 10.6181C34.4323 10.6181 34.7819 10.2685 34.7819 9.83737V8.97833C37.1509 12.1498 38.4385 15.9978 38.4385 20C38.4385 30.1671 30.1671 38.4385 20 38.4385C9.83292 38.4385 1.56148 30.1671 1.56148 20C1.56148 9.83292 9.83292 1.56148 20 1.56148C20.7519 1.56148 21.5087 1.60715 22.2495 1.69717C22.6769 1.74885 23.0667 1.44444 23.1187 1.01636C23.1708 0.588364 22.866 0.199088 22.4379 0.147091C21.6349 0.0494988 20.8147 0 20 0C14.6578 0 9.63532 2.08035 5.85787 5.85787C2.08035 9.63532 0 14.6578 0 20C0 25.3422 2.08035 30.3647 5.85787 34.1421C9.63532 37.9196 14.6578 40 20 40C25.3422 40 30.3647 37.9196 34.1421 34.1421C37.9196 30.3647 40 25.3422 40 20C40 15.4919 38.494 11.1642 35.7321 7.65131Z" fill="#FF5E15"/>
<path d="M8.46883 11.7902C8.10446 11.5596 7.6222 11.6681 7.39149 12.0322C5.60914 14.8473 4.82013 18.2327 5.16982 21.565C5.52467 24.9466 7.04671 28.1356 9.4556 30.5446C12.3627 33.4517 16.1813 34.9053 20.0001 34.9053C23.8188 34.9053 27.6374 33.4518 30.5446 30.5446C36.3588 24.7304 36.3588 15.2699 30.5446 9.45572C28.1394 7.05058 24.9556 5.52908 21.5795 5.1715C18.2534 4.819 14.8717 5.60184 12.0578 7.37544C11.693 7.60537 11.5837 8.08748 11.8136 8.45224C12.0435 8.81708 12.5256 8.9263 12.8904 8.69645C18.1946 5.35333 25 6.11947 29.4404 10.5598C34.6458 15.7653 34.6458 24.235 29.4404 29.4404C24.235 34.6459 15.7651 34.6459 10.5598 29.4404C6.1808 25.0614 5.40318 18.0915 8.71086 12.8676C8.94141 12.5033 8.83312 12.0209 8.46883 11.7902Z" fill="#FF5E15"/>
<path d="M30.1497 20.7934H31.1125C31.5436 20.7934 31.8932 20.4438 31.8932 20.0127C31.8932 19.5815 31.5436 19.2319 31.1125 19.2319H30.1497C29.7186 19.2319 29.369 19.5815 29.369 20.0127C29.369 20.4438 29.7185 20.7934 30.1497 20.7934Z" fill="#FF5E15"/>
<path d="M8.10681 19.9873C8.10681 20.4184 8.45643 20.768 8.88755 20.768H9.85035C10.2815 20.768 10.6311 20.4184 10.6311 19.9873C10.6311 19.5562 10.2815 19.2065 9.85035 19.2065H8.88755C8.45643 19.2065 8.10681 19.5561 8.10681 19.9873Z" fill="#FF5E15"/>
<path d="M20.7934 9.85023V8.88743C20.7934 8.4563 20.4438 8.10669 20.0127 8.10669C19.5815 8.10669 19.2319 8.4563 19.2319 8.88743V9.85023C19.2319 10.2814 19.5815 10.631 20.0127 10.631C20.4438 10.631 20.7934 10.2814 20.7934 9.85023Z" fill="#FF5E15"/>
<path d="M19.2066 30.1496V31.1124C19.2066 31.5436 19.5562 31.8932 19.9873 31.8932C20.4185 31.8932 20.7681 31.5436 20.7681 31.1124V30.1496C20.7681 29.7185 20.4185 29.3689 19.9873 29.3689C19.5562 29.3689 19.2066 29.7184 19.2066 30.1496Z" fill="#FF5E15"/>
<path d="M16.0866 14.9826C15.7817 14.6778 15.2875 14.6778 14.9824 14.9826C14.6776 15.2874 14.6776 15.7818 14.9824 16.0868L17.6284 18.7328C17.4257 19.1106 17.3104 19.5421 17.3104 20.0001C17.3104 21.4832 18.5169 22.6898 20 22.6898C21.4831 22.6898 22.6897 21.4832 22.6897 20.0001C22.6897 19.5421 22.5743 19.1106 22.3716 18.7328L27.7105 13.3938C28.0154 13.089 28.0154 12.5946 27.7105 12.2896C27.4055 11.9848 26.9113 11.9848 26.6063 12.2896L21.2674 17.6286C20.8895 17.4258 20.458 17.3105 20 17.3105C19.542 17.3105 19.1105 17.4259 18.7326 17.6286L16.0866 14.9826ZM21.1282 20.0001C21.1282 20.6222 20.6221 21.1283 20 21.1283C19.3779 21.1283 18.8718 20.6222 18.8718 20.0001C18.8718 19.378 19.3779 18.872 20 18.872C20.6221 18.872 21.1282 19.378 21.1282 20.0001Z" fill="#FF5E15"/>
<path d="M10.5593 10.5593C10.7053 10.4141 10.7888 10.2126 10.7888 10.0073C10.7888 9.80197 10.7053 9.60132 10.5593 9.45532C10.4141 9.31018 10.2134 9.22656 10.0074 9.22656C9.80203 9.22656 9.6006 9.3101 9.45538 9.45532C9.31024 9.60054 9.22662 9.80197 9.22662 10.0073C9.22662 10.2134 9.31016 10.4141 9.45538 10.5593C9.6006 10.7044 9.80203 10.788 10.0074 10.788C10.2134 10.788 10.4141 10.7044 10.5593 10.5593Z" fill="#FF5E15"/>
<path d="M25.4082 2.33272C25.6144 2.33272 25.8158 2.24988 25.9609 2.10396C26.1062 1.95874 26.1898 1.75801 26.1898 1.55198C26.1898 1.34664 26.1062 1.14521 25.9609 0.999996C25.8158 0.854857 25.6144 0.77124 25.4082 0.77124C25.2028 0.77124 25.0014 0.854779 24.8563 0.999996C24.7111 1.14521 24.6274 1.34664 24.6274 1.55198C24.6274 1.75809 24.711 1.95874 24.8563 2.10396C25.0014 2.24988 25.2028 2.33272 25.4082 2.33272Z" fill="#FF5E15"/>
</svg>
