<svg width="160" height="30" viewBox="0 0 160 30" fill="none" xmlns="http://www.w3.org/2000/svg">
<path d="M157.323 25.2494C156.823 25.2494 156.364 25.1327 155.947 24.8994C155.547 24.6494 155.23 24.3244 154.996 23.9244C154.763 23.5244 154.646 23.0744 154.646 22.5744C154.646 22.0744 154.763 21.6244 154.996 21.2244C155.23 20.8244 155.547 20.5077 155.947 20.2744C156.364 20.0244 156.823 19.8994 157.323 19.8994C157.823 19.8994 158.274 20.0244 158.674 20.2744C159.074 20.5077 159.391 20.8244 159.625 21.2244C159.875 21.6244 160 22.0744 160 22.5744C160 23.0744 159.875 23.5244 159.625 23.9244C159.391 24.3244 159.074 24.6494 158.674 24.8994C158.274 25.1327 157.823 25.2494 157.323 25.2494Z" fill="#FF5E15"/>
<path d="M134.749 25V6.25H139.452V21.2L138.176 20.25L149.284 6.25H154.287L139.002 25H134.749ZM143.73 15.925L147.132 13L154.537 25H149.184L143.73 15.925Z" fill="#001659"/>
<path d="M127.12 6.25H131.848V25H127.12V6.25Z" fill="#001659"/>
<path d="M111.091 14.05H124.675V18.075H111.091V14.05ZM125.126 6.25V10.275H111.191L113.518 7.95V25H108.79V6.25H125.126Z" fill="#001659"/>
<path d="M102.838 21.775L101.312 22.05V6.25H105.89V25H99.9361L88.5033 9.2L90.0293 8.925V25H85.4512V6.25H91.5804L102.838 21.775Z" fill="#001659"/>
<path d="M72.3438 25.3996C70.1422 25.3996 68.2076 24.9913 66.5398 24.1746C64.8886 23.3579 63.6044 22.2163 62.6871 20.7496C61.7698 19.2829 61.3112 17.5746 61.3112 15.6246C61.3112 13.6746 61.7698 11.9663 62.6871 10.4996C63.6044 9.03294 64.8886 7.89128 66.5398 7.07461C68.2076 6.25794 70.1422 5.84961 72.3438 5.84961C74.5453 5.84961 76.4716 6.25794 78.1227 7.07461C79.7905 7.89128 81.0831 9.03294 82.0004 10.4996C82.9344 11.9663 83.4014 13.6746 83.4014 15.6246C83.4014 17.5746 82.9344 19.2829 82.0004 20.7496C81.0831 22.2163 79.7905 23.3579 78.1227 24.1746C76.4716 24.9913 74.5453 25.3996 72.3438 25.3996ZM72.3438 21.1746C73.6446 21.1746 74.7621 20.9579 75.6961 20.5246C76.63 20.0746 77.3472 19.4329 77.8475 18.5996C78.3646 17.7663 78.6231 16.7746 78.6231 15.6246C78.6231 14.4746 78.3646 13.4829 77.8475 12.6496C77.3472 11.8163 76.63 11.1829 75.6961 10.7496C74.7621 10.2996 73.6446 10.0746 72.3438 10.0746C71.0595 10.0746 69.9504 10.2996 69.0165 10.7496C68.0825 11.1829 67.357 11.8163 66.84 12.6496C66.3229 13.4829 66.0644 14.4746 66.0644 15.6246C66.0644 16.7746 66.3229 17.7663 66.84 18.5996C67.357 19.4329 68.0825 20.0746 69.0165 20.5246C69.9504 20.9579 71.0595 21.1746 72.3438 21.1746Z" fill="#001659"/>
<path d="M59.3 13.875V17.375H45.7156V13.875H59.3ZM48.9178 15.625L47.667 23.375L45.6906 21.125H60.1005V25H42.9387L44.3897 15.625L42.9387 6.25H59.9755V10.125H45.6906L47.667 7.875L48.9178 15.625Z" fill="#001659"/>
<path d="M7.75764 0H0L4.13553 21.325L5.81873 30H13.5764L11.4099 18.8298L7.75764 0Z" fill="#001659"/>
<path d="M18.482 0H10.7244L14.2156 18.0035L16.5421 30H24.2997L21.6179 16.1732L18.482 0Z" fill="#FF5E15"/>
<path d="M29.2054 0H21.4478L24.4729 15.5972L27.2665 30H35.0241L32.001 14.4132L29.2054 0Z" fill="#001659"/>
</svg>
