<svg width="160" height="30" viewBox="0 0 160 30" fill="none" xmlns="http://www.w3.org/2000/svg">
<path d="M157.323 25.2499C156.823 25.2499 156.364 25.1332 155.947 24.8999C155.547 24.6499 155.23 24.3249 154.997 23.9249C154.763 23.5249 154.646 23.0749 154.646 22.5749C154.646 22.0749 154.763 21.6249 154.997 21.2249C155.23 20.8249 155.547 20.5082 155.947 20.2749C156.364 20.0249 156.823 19.8999 157.323 19.8999C157.823 19.8999 158.274 20.0249 158.674 20.2749C159.074 20.5082 159.391 20.8249 159.625 21.2249C159.875 21.6249 160 22.0749 160 22.5749C160 23.0749 159.875 23.5249 159.625 23.9249C159.391 24.3249 159.074 24.6499 158.674 24.8999C158.274 25.1332 157.823 25.2499 157.323 25.2499Z" fill="#FF5E15"/>
<path d="M134.749 25V6.25H139.452V21.2L138.176 20.25L149.284 6.25H154.287L139.002 25H134.749ZM143.73 15.925L147.132 13L154.537 25H149.184L143.73 15.925Z" fill="white"/>
<path d="M127.12 6.25H131.848V25H127.12V6.25Z" fill="white"/>
<path d="M111.091 14.05H124.675V18.075H111.091V14.05ZM125.126 6.25V10.275H111.191L113.518 7.95V25H108.79V6.25H125.126Z" fill="white"/>
<path d="M102.838 21.775L101.312 22.05V6.25H105.89V25H99.9362L88.5033 9.2L90.0294 8.925V25H85.4512V6.25H91.5804L102.838 21.775Z" fill="white"/>
<path d="M72.3437 25.4001C70.1422 25.4001 68.2075 24.9918 66.5397 24.1751C64.8886 23.3584 63.6044 22.2168 62.6871 20.7501C61.7698 19.2834 61.3111 17.5751 61.3111 15.6251C61.3111 13.6751 61.7698 11.9668 62.6871 10.5001C63.6044 9.03343 64.8886 7.89176 66.5397 7.0751C68.2075 6.25843 70.1422 5.8501 72.3437 5.8501C74.5452 5.8501 76.4716 6.25843 78.1227 7.0751C79.7905 7.89176 81.0831 9.03343 82.0004 10.5001C82.9343 11.9668 83.4013 13.6751 83.4013 15.6251C83.4013 17.5751 82.9343 19.2834 82.0004 20.7501C81.0831 22.2168 79.7905 23.3584 78.1227 24.1751C76.4716 24.9918 74.5452 25.4001 72.3437 25.4001ZM72.3437 21.1751C73.6446 21.1751 74.7621 20.9584 75.696 20.5251C76.63 20.0751 77.3472 19.4334 77.8475 18.6001C78.3645 17.7668 78.623 16.7751 78.623 15.6251C78.623 14.4751 78.3645 13.4834 77.8475 12.6501C77.3472 11.8168 76.63 11.1834 75.696 10.7501C74.7621 10.3001 73.6446 10.0751 72.3437 10.0751C71.0595 10.0751 69.9504 10.3001 69.0164 10.7501C68.0825 11.1834 67.357 11.8168 66.8399 12.6501C66.3229 13.4834 66.0644 14.4751 66.0644 15.6251C66.0644 16.7751 66.3229 17.7668 66.8399 18.6001C67.357 19.4334 68.0825 20.0751 69.0164 20.5251C69.9504 20.9584 71.0595 21.1751 72.3437 21.1751Z" fill="white"/>
<path d="M59.3 13.875V17.375H45.7156V13.875H59.3ZM48.9178 15.625L47.667 23.375L45.6906 21.125H60.1005V25H42.9387L44.3897 15.625L42.9387 6.25H59.9755V10.125H45.6906L47.667 7.875L48.9178 15.625Z" fill="white"/>
<path d="M7.75764 0H0L4.13553 21.325L5.81873 30H13.5764L11.4099 18.8298L7.75764 0Z" fill="white"/>
<path d="M18.482 0H10.7244L14.2156 18.0035L16.5421 30H24.2998L21.6179 16.1732L18.482 0Z" fill="#FF5E15"/>
<path d="M29.2054 0H21.4478L24.4729 15.5972L27.2665 30H35.0241L32.001 14.4132L29.2054 0Z" fill="white"/>
</svg>
