<svg width="160" height="30" viewBox="0 0 160 30" fill="none" xmlns="http://www.w3.org/2000/svg">
<path d="M157.323 25.25C156.823 25.25 156.364 25.1333 155.947 24.9C155.547 24.65 155.23 24.325 154.997 23.925C154.763 23.525 154.646 23.075 154.646 22.575C154.646 22.075 154.763 21.625 154.997 21.225C155.23 20.825 155.547 20.5083 155.947 20.275C156.364 20.025 156.823 19.9 157.323 19.9C157.823 19.9 158.274 20.025 158.674 20.275C159.074 20.5083 159.391 20.825 159.625 21.225C159.875 21.625 160 22.075 160 22.575C160 23.075 159.875 23.525 159.625 23.925C159.391 24.325 159.074 24.65 158.674 24.9C158.274 25.1333 157.823 25.25 157.323 25.25Z" fill="#FF5E15"/>
<path d="M134.749 25V6.25H139.452V21.2L138.176 20.25L149.284 6.25H154.287L139.002 25H134.749ZM143.73 15.925L147.132 13L154.537 25H149.184L143.73 15.925Z" fill="#001659"/>
<path d="M127.12 6.25H131.848V25H127.12V6.25Z" fill="#001659"/>
<path d="M111.091 14.05H124.675V18.075H111.091V14.05ZM125.126 6.25V10.275H111.191L113.518 7.95V25H108.79V6.25H125.126Z" fill="#001659"/>
<path d="M102.838 21.775L101.312 22.05V6.25H105.89V25H99.9362L88.5033 9.2L90.0294 8.925V25H85.4512V6.25H91.5804L102.838 21.775Z" fill="#001659"/>
<path d="M72.3437 25.4C70.1422 25.4 68.2075 24.9917 66.5397 24.175C64.8886 23.3583 63.6044 22.2167 62.6871 20.75C61.7698 19.2833 61.3111 17.575 61.3111 15.625C61.3111 13.675 61.7698 11.9667 62.6871 10.5C63.6044 9.03332 64.8886 7.89166 66.5397 7.07499C68.2075 6.25832 70.1422 5.84999 72.3437 5.84999C74.5452 5.84999 76.4716 6.25832 78.1227 7.07499C79.7905 7.89166 81.0831 9.03332 82.0004 10.5C82.9343 11.9667 83.4013 13.675 83.4013 15.625C83.4013 17.575 82.9343 19.2833 82.0004 20.75C81.0831 22.2167 79.7905 23.3583 78.1227 24.175C76.4716 24.9917 74.5452 25.4 72.3437 25.4ZM72.3437 21.175C73.6446 21.175 74.7621 20.9583 75.696 20.525C76.63 20.075 77.3472 19.4333 77.8475 18.6C78.3645 17.7667 78.623 16.775 78.623 15.625C78.623 14.475 78.3645 13.4833 77.8475 12.65C77.3472 11.8167 76.63 11.1833 75.696 10.75C74.7621 10.3 73.6446 10.075 72.3437 10.075C71.0595 10.075 69.9504 10.3 69.0164 10.75C68.0825 11.1833 67.357 11.8167 66.8399 12.65C66.3229 13.4833 66.0644 14.475 66.0644 15.625C66.0644 16.775 66.3229 17.7667 66.8399 18.6C67.357 19.4333 68.0825 20.075 69.0164 20.525C69.9504 20.9583 71.0595 21.175 72.3437 21.175Z" fill="#001659"/>
<path d="M59.3 13.875V17.375H45.7156V13.875H59.3ZM48.9178 15.625L47.667 23.375L45.6906 21.125H60.1005V25H42.9387L44.3897 15.625L42.9387 6.25H59.9755V10.125H45.6906L47.667 7.875L48.9178 15.625Z" fill="#001659"/>
<path d="M7.75764 0H0L4.13553 21.325L5.81873 30H13.5764L11.4099 18.8298L7.75764 0Z" fill="#001659"/>
<path d="M18.482 0H10.7244L14.2156 18.0035L16.5421 30H24.2998L21.6179 16.1732L18.482 0Z" fill="#FF5E15"/>
<path d="M29.2054 0H21.4478L24.4729 15.5972L27.2665 30H35.0241L32.001 14.4132L29.2054 0Z" fill="#001659"/>
</svg>
