<svg width="160" height="30" viewBox="0 0 160 30" fill="none" xmlns="http://www.w3.org/2000/svg">
<path d="M157.323 25.25C156.823 25.25 156.364 25.1333 155.947 24.9C155.547 24.65 155.23 24.325 154.997 23.925C154.763 23.525 154.646 23.075 154.646 22.575C154.646 22.075 154.763 21.625 154.997 21.225C155.23 20.825 155.547 20.5083 155.947 20.275C156.364 20.025 156.823 19.9 157.323 19.9C157.824 19.9 158.274 20.025 158.674 20.275C159.075 20.5083 159.391 20.825 159.625 21.225C159.875 21.625 160 22.075 160 22.575C160 23.075 159.875 23.525 159.625 23.925C159.391 24.325 159.075 24.65 158.674 24.9C158.274 25.1333 157.824 25.25 157.323 25.25Z" fill="#FF5E15"/>
<path d="M134.749 25V6.25H139.452V21.2L138.176 20.25L149.284 6.25H154.287L139.002 25H134.749ZM143.73 15.925L147.133 13L154.538 25H149.184L143.73 15.925Z" fill="white"/>
<path d="M127.12 6.25H131.848V25H127.12V6.25Z" fill="white"/>
<path d="M111.091 14.05H124.675V18.075H111.091V14.05ZM125.126 6.25V10.275H111.191L113.518 7.95V25H108.79V6.25H125.126Z" fill="white"/>
<path d="M102.838 21.775L101.312 22.05V6.25H105.89V25H99.9361L88.5033 9.2L90.0293 8.925V25H85.4512V6.25H91.5804L102.838 21.775Z" fill="white"/>
<path d="M72.3441 25.4C70.1426 25.4 68.2079 24.9917 66.5401 24.175C64.889 23.3583 63.6048 22.2167 62.6875 20.75C61.7702 19.2833 61.3115 17.575 61.3115 15.625C61.3115 13.675 61.7702 11.9667 62.6875 10.5C63.6048 9.03332 64.889 7.89166 66.5401 7.07499C68.2079 6.25832 70.1426 5.84999 72.3441 5.84999C74.5456 5.84999 76.472 6.25832 78.1231 7.07499C79.7909 7.89166 81.0835 9.03332 82.0008 10.5C82.9347 11.9667 83.4017 13.675 83.4017 15.625C83.4017 17.575 82.9347 19.2833 82.0008 20.75C81.0835 22.2167 79.7909 23.3583 78.1231 24.175C76.472 24.9917 74.5456 25.4 72.3441 25.4ZM72.3441 21.175C73.645 21.175 74.7624 20.9583 75.6964 20.525C76.6304 20.075 77.3476 19.4333 77.8479 18.6C78.3649 17.7667 78.6234 16.775 78.6234 15.625C78.6234 14.475 78.3649 13.4833 77.8479 12.65C77.3476 11.8167 76.6304 11.1833 75.6964 10.75C74.7624 10.3 73.645 10.075 72.3441 10.075C71.0599 10.075 69.9508 10.3 69.0168 10.75C68.0829 11.1833 67.3574 11.8167 66.8403 12.65C66.3233 13.4833 66.0648 14.475 66.0648 15.625C66.0648 16.775 66.3233 17.7667 66.8403 18.6C67.3574 19.4333 68.0829 20.075 69.0168 20.525C69.9508 20.9583 71.0599 21.175 72.3441 21.175Z" fill="white"/>
<path d="M59.3002 13.875V17.375H45.7159V13.875H59.3002ZM48.9181 15.625L47.6672 23.375L45.6909 21.125H60.1008V25H42.939L44.39 15.625L42.939 6.25H59.9757V10.125H45.6909L47.6672 7.875L48.9181 15.625Z" fill="white"/>
<path d="M7.75764 0H0L4.13553 21.325L5.81873 30H13.5764L11.4099 18.8298L7.75764 0Z" fill="white"/>
<path d="M18.4822 0H10.7246L14.2158 18.0035L16.5423 30H24.3L21.6181 16.1732L18.4822 0Z" fill="#FF5E15"/>
<path d="M29.2054 0H21.4478L24.4729 15.5972L27.2665 30H35.0241L32.001 14.4132L29.2054 0Z" fill="white"/>
</svg>
