<svg width="137" height="34" viewBox="0 0 137 34" fill="none" xmlns="http://www.w3.org/2000/svg">
<g clip-path="url(#clip0_10_516)">
<path d="M31.7334 22.0183C31.7477 25.8365 33.6497 29.1075 37.3672 29.1075C40.611 29.1075 41.5891 27.6416 42.2943 26.01H48.3603C47.4401 29.1435 44.7236 33.9574 37.2007 33.9574C29.0855 33.9574 25.6331 27.6689 25.6331 21.096C25.6331 13.325 29.5678 7.56714 37.4593 7.56714C45.8761 7.56714 48.7054 13.9183 48.7054 19.9044C48.7054 20.7288 48.7054 21.3127 48.6226 22.0183H31.7327H31.7334ZM42.6258 18.1411C42.5765 14.7974 41.1082 12.0376 37.43 12.0376C33.7518 12.0376 32.2107 14.6066 31.8799 18.1411H42.6265H42.6258Z" fill="white"/>
<path d="M19.5278 8.15552C16.8191 16.6199 14.2984 24.2037 13.6261 27.9103H13.5782C12.9945 24.8394 10.8481 17.2909 8.13448 8.15552H0C1.14104 8.15552 2.07845 9.40976 2.20206 9.84249L10.1915 33.3686H16.6269L25.5888 8.15552H19.5285H19.5278Z" fill="white"/>
<path d="M136.378 20.7008C136.378 28.2378 131.964 34 124.099 34C116.233 34 112.024 28.394 112.024 20.8196C112.024 13.2452 116.57 7.50098 124.411 7.50098C131.666 7.50098 136.377 12.7613 136.377 20.7008H136.378ZM118.212 20.7505C118.212 25.8517 120.518 29.1306 124.26 29.1306C128.002 29.1306 130.19 25.9208 130.19 20.785C130.19 15.3533 128.045 12.3711 124.161 12.3711C120.277 12.3711 118.212 15.254 118.212 20.7512V20.7505Z" fill="white"/>
<path d="M92.4916 12.7785V8.09131H87.2251H84.4529C85.5303 8.09131 86.2905 8.84875 86.3891 9.62924C86.407 11.134 86.4156 12.8556 86.4156 14.9623V33.4081H92.4916V21.9492C92.4916 15.1898 95.6046 12.7526 100.688 12.7872V8.10283C96.4542 8.16115 93.6691 9.70556 92.4916 12.7778V12.7785Z" fill="white"/>
<path d="M58.0467 12.7785V8.09131H52.7802H50.0079C51.0854 8.09131 51.8456 8.84875 51.9442 9.62924C51.9621 11.134 51.9707 12.8556 51.9707 14.9623V33.4081H58.0467V21.9492C58.0467 15.1898 61.1597 12.7526 66.2426 12.7872V8.10283C62.0093 8.16115 59.2242 9.70556 58.0467 12.7778V12.7785Z" fill="white"/>
<path d="M109.224 8.09131H103.148V33.4088H109.224V8.09131Z" fill="white"/>
<path d="M109.209 0H103.148V7.02219C103.152 7.02219 103.155 7.02147 103.16 7.02147C106.498 7.01859 109.204 4.29194 109.208 0.927364V0H109.209Z" fill="white"/>
<path d="M82.9596 12.788V8.09145H77.8288V8.08569H71.7528V8.09145H67.7209V12.788H71.7528V26.9591C71.7528 31.3137 73.409 33.7538 77.976 33.7538C79.3107 33.7538 81.0662 33.7236 82.343 33.2757V28.9679C81.7671 29.0759 81.0147 29.0911 80.5553 29.0911C78.4147 29.0911 77.8281 28.1709 77.8281 26.0678V12.788H82.9589H82.9596Z" fill="white"/>
<path d="M77.7988 0.926644V0H71.7392V7.02219C71.7428 7.02219 71.7463 7.02147 71.7506 7.02147C75.0894 7.01859 77.7952 4.29194 77.7988 0.927364V0.926644Z" fill="white"/>
</g>
<defs>
<clipPath id="clip0_10_516">
<rect width="136.378" height="34" fill="white"/>
</clipPath>
</defs>
</svg>
