<svg width="60" height="60" viewBox="0 0 60 60" fill="none" xmlns="http://www.w3.org/2000/svg">
<path d="M36.4999 25.8316C36.5768 25.8317 36.6533 25.8224 36.7279 25.8037L40.2435 24.9248C40.4804 24.8606 40.6828 24.7061 40.807 24.4944C40.9313 24.2827 40.9676 24.0307 40.9082 23.7926C40.8487 23.5544 40.6982 23.3491 40.489 23.2206C40.2799 23.0922 40.0286 23.0509 39.7893 23.1056L36.2738 23.9845C36.0552 24.0433 35.8652 24.1791 35.7386 24.3668C35.6121 24.5545 35.5576 24.7815 35.5851 25.0062C35.6126 25.2309 35.7203 25.4381 35.8884 25.5898C36.0564 25.7414 36.2736 25.8273 36.4999 25.8316Z" fill="#E5DA38"/>
<path d="M45.289 23.6324C45.3658 23.6326 45.4424 23.6232 45.5169 23.6045L49.0326 22.7256C49.2696 22.6615 49.472 22.507 49.5963 22.2953C49.7206 22.0836 49.7569 21.8316 49.6975 21.5934C49.638 21.3552 49.4875 21.1498 49.2782 21.0214C49.069 20.8929 48.8177 20.8517 48.5784 20.9065L45.0628 21.7854C44.8442 21.8442 44.6542 21.9799 44.5277 22.1676C44.4012 22.3553 44.3466 22.5824 44.3742 22.8071C44.4017 23.0318 44.5094 23.239 44.6774 23.3906C44.8455 23.5422 45.0626 23.6281 45.289 23.6324Z" fill="#E5DA38"/>
<path d="M39.7906 42.7229L36.2749 43.6018C36.037 43.665 35.8334 43.8193 35.7083 44.0314C35.5831 44.2434 35.5464 44.4962 35.606 44.7351C35.6657 44.9739 35.8169 45.1798 36.027 45.3081C36.2372 45.4365 36.4893 45.477 36.7291 45.421L40.2447 44.5421C40.4817 44.478 40.6842 44.3235 40.8085 44.1118C40.9329 43.9 40.9692 43.648 40.9097 43.4098C40.8503 43.1716 40.6997 42.9662 40.4905 42.8377C40.2812 42.7093 40.0299 42.6681 39.7906 42.7229Z" fill="#E5DA38"/>
<path d="M48.5807 40.5236L45.0651 41.4025C44.825 41.4638 44.6189 41.6176 44.4919 41.8304C44.3649 42.0432 44.3273 42.2976 44.3873 42.538C44.4473 42.7784 44.6001 42.9853 44.8122 43.1134C45.0243 43.2415 45.2785 43.2805 45.5192 43.2217L49.0348 42.3428C49.2718 42.2787 49.4742 42.1242 49.5985 41.9125C49.7228 41.7008 49.7591 41.4488 49.6997 41.2106C49.6402 40.9724 49.4897 40.767 49.2805 40.6386C49.0713 40.5101 48.82 40.4689 48.5807 40.5236Z" fill="#E5DA38"/>
<path d="M39.9892 33.8316C40.0498 34.0725 40.2034 34.2795 40.4164 34.4073C40.6293 34.5352 40.8843 34.5734 41.1253 34.5137L44.641 33.6348C44.8809 33.5733 45.0868 33.4195 45.2136 33.2068C45.3405 32.9941 45.378 32.7398 45.318 32.4995C45.258 32.2592 45.1054 32.0524 44.8935 31.9243C44.6815 31.7962 44.4275 31.7571 44.1869 31.8156L40.6712 32.6945C40.5517 32.7243 40.4393 32.7773 40.3403 32.8506C40.2413 32.9239 40.1577 33.016 40.0944 33.1216C40.031 33.2272 39.9891 33.3443 39.971 33.4661C39.953 33.588 39.9592 33.7122 39.9892 33.8316Z" fill="#E5DA38"/>
<path d="M34.2187 36.2105C34.3463 36.2349 35.6986 35.8596 35.8529 35.831C36.0898 35.7668 36.2921 35.6123 36.4163 35.4006C36.5406 35.1889 36.5769 34.937 36.5174 34.6988C36.4579 34.4607 36.3075 34.2554 36.0983 34.1269C35.8892 33.9985 35.638 33.9572 35.3987 34.0119L33.9926 34.3634C33.7739 34.4222 33.5839 34.5579 33.4574 34.7456C33.3309 34.9333 33.2763 35.1604 33.3038 35.3851C33.3314 35.6098 33.439 35.817 33.6071 35.9686C33.7752 36.1203 33.9924 36.2062 34.2187 36.2105Z" fill="#E5DA38"/>
<path d="M48.7782 31.6324C49.1329 32.8538 50.5107 32.1068 51.3207 31.9629C51.5606 31.9015 51.7665 31.7477 51.8934 31.535C52.0203 31.3222 52.0579 31.0679 51.9979 30.8276C51.9379 30.5873 51.7852 30.3805 51.5733 30.2524C51.3613 30.1242 51.1072 30.0852 50.8666 30.1438L49.4603 30.4954C49.3408 30.5251 49.2283 30.5782 49.1293 30.6514C49.0303 30.7247 48.9468 30.8168 48.8834 30.9224C48.8201 31.028 48.7782 31.1451 48.7601 31.267C48.7421 31.3888 48.7482 31.513 48.7782 31.6324Z" fill="#E5DA38"/>
<path d="M19.7552 24.9248L23.2709 25.8037C23.5106 25.8597 23.7628 25.8192 23.9729 25.6908C24.183 25.5625 24.3342 25.3566 24.3938 25.1178C24.4534 24.8789 24.4167 24.6261 24.2915 24.4141C24.1664 24.2021 23.9629 24.0478 23.7249 23.9846L20.2093 23.1057C19.97 23.0509 19.7188 23.0922 19.5096 23.2206C19.3004 23.3491 19.1499 23.5544 19.0904 23.7926C19.031 24.0308 19.0673 24.2828 19.1916 24.4945C19.3159 24.7062 19.5183 24.8607 19.7552 24.9248Z" fill="#E5DA38"/>
<path d="M10.9662 22.7256L14.4818 23.6045C14.7225 23.6633 14.9767 23.6243 15.1888 23.4962C15.4009 23.3681 15.5537 23.1612 15.6137 22.9208C15.6737 22.6804 15.6361 22.426 15.5091 22.2132C15.3821 22.0004 15.176 21.8466 14.9359 21.7853L11.4203 20.9064C11.181 20.8517 10.9297 20.893 10.7205 21.0214C10.5113 21.1498 10.3608 21.3552 10.3014 21.5934C10.2419 21.8316 10.2782 22.0836 10.4025 22.2953C10.5268 22.507 10.7292 22.6615 10.9662 22.7256Z" fill="#E5DA38"/>
<path d="M23.7223 43.601L20.2067 42.7221C19.966 42.6633 19.7118 42.7022 19.4997 42.8303C19.2876 42.9585 19.1348 43.1653 19.0748 43.4058C19.0148 43.6462 19.0524 43.9006 19.1794 44.1134C19.3064 44.3261 19.5125 44.48 19.7526 44.5412L23.2682 45.4201C23.3428 45.4388 23.4194 45.4482 23.4962 45.4481C23.7225 45.4437 23.9397 45.3579 24.1078 45.2062C24.2759 45.0546 24.3836 44.8474 24.4111 44.6227C24.4386 44.398 24.384 44.1709 24.2575 43.9832C24.131 43.7955 23.9409 43.6598 23.7223 43.601Z" fill="#E5DA38"/>
<path d="M14.9333 41.4057L11.4177 40.5267C11.1769 40.468 10.9227 40.5069 10.7106 40.635C10.4985 40.7631 10.3457 40.97 10.2857 41.2104C10.2257 41.4509 10.2633 41.7053 10.3903 41.918C10.5174 42.1308 10.7234 42.2846 10.9635 42.3459L14.4792 43.2248C14.7189 43.2808 14.9711 43.2403 15.1812 43.112C15.3914 42.9836 15.5426 42.7778 15.6022 42.5389C15.6618 42.3 15.6251 42.0472 15.4999 41.8352C15.3748 41.6232 15.1712 41.4689 14.9333 41.4057Z" fill="#E5DA38"/>
<path d="M20.013 33.8316C20.043 33.7122 20.0492 33.588 20.0311 33.4661C20.0131 33.3443 19.9712 33.2272 19.9078 33.1216C19.8445 33.016 19.7609 32.9239 19.6619 32.8506C19.5629 32.7773 19.4504 32.7243 19.3309 32.6945L15.8153 31.8156C15.5747 31.7571 15.3206 31.7962 15.1087 31.9243C14.8968 32.0524 14.7441 32.2592 14.6842 32.4995C14.6242 32.7398 14.6617 32.9941 14.7886 33.2068C14.9154 33.4195 15.1213 33.5733 15.3612 33.6348L18.8768 34.5137C19.1179 34.5734 19.3728 34.5352 19.5858 34.4073C19.7987 34.2795 19.9524 34.0725 20.013 33.8316Z" fill="#E5DA38"/>
<path d="M26.0106 34.3625L24.6044 34.0109C24.3637 33.9524 24.1097 33.9915 23.8978 34.1196C23.6858 34.2477 23.5332 34.4545 23.4732 34.6948C23.4132 34.9351 23.4508 35.1894 23.5776 35.4021C23.7045 35.6148 23.9103 35.7686 24.1503 35.8301C24.3109 35.8602 25.6507 36.2333 25.7845 36.2096C26.0108 36.2053 26.228 36.1194 26.396 35.9678C26.5641 35.8161 26.6718 35.6089 26.6993 35.3842C26.7268 35.1595 26.6723 34.9324 26.5458 34.7447C26.4193 34.557 26.2292 34.4213 26.0106 34.3625Z" fill="#E5DA38"/>
<path d="M11.2239 31.6324C11.2539 31.5129 11.2601 31.3887 11.2421 31.2669C11.224 31.1451 11.1821 31.028 11.1188 30.9224C11.0554 30.8168 10.9718 30.7247 10.8728 30.6514C10.7739 30.5781 10.6614 30.5251 10.5419 30.4953L9.13562 30.1437C8.89498 30.0852 8.64095 30.1243 8.42902 30.2524C8.21708 30.3806 8.06446 30.5873 8.00448 30.8276C7.9445 31.0679 7.98203 31.3222 8.10888 31.5349C8.23573 31.7476 8.44159 31.9015 8.68151 31.9629L10.0878 32.3145C10.3288 32.3742 10.5838 32.3359 10.7967 32.2081C11.0097 32.0803 11.1633 31.8733 11.2239 31.6324Z" fill="#E5DA38"/>
<path d="M56.1775 10.7017C56.1303 10.5566 56.047 10.4258 55.9354 10.3216C55.8239 10.2175 55.6876 10.1434 55.5396 10.1063L30.2271 3.77815C30.078 3.74062 29.922 3.74062 29.773 3.77815L4.46046 10.1063C4.26136 10.1638 4.0855 10.2827 3.95794 10.446C3.83037 10.6093 3.7576 10.8088 3.75 11.0159V48.9846C3.75003 49.1937 3.81997 49.3968 3.9487 49.5617C4.07742 49.7265 4.25755 49.8435 4.46045 49.8942L29.7729 56.2223C29.922 56.2596 30.078 56.2596 30.2271 56.2223L55.5396 49.8942C55.7424 49.8435 55.9226 49.7265 56.0513 49.5617C56.18 49.3968 56.25 49.1937 56.25 48.9846V11.0159C56.2354 10.9092 56.2111 10.804 56.1775 10.7017ZM30 5.65407L51.4472 11.0159L30 16.3776L8.55281 11.0159L30 5.65407ZM5.625 12.2166L29.0625 18.0759V54.112L5.625 48.2526V12.2166ZM54.375 48.2526L30.9375 54.112V18.0759L54.375 12.2166V48.2526Z" fill="#E5DA38"/>
</svg>
