<svg width="54" height="48" viewBox="0 0 54 48" fill="none" xmlns="http://www.w3.org/2000/svg">
<path d="M50.4375 41.8125V3.375C50.4367 2.62933 50.1401 1.91443 49.6128 1.38716C49.0856 0.859892 48.3707 0.563314 47.625 0.5625H6.375C5.62933 0.563314 4.91443 0.859892 4.38716 1.38716C3.85989 1.91443 3.56331 2.62933 3.5625 3.375V41.8125C2.81658 41.8125 2.10121 42.1088 1.57376 42.6363C1.04632 43.1637 0.75 43.8791 0.75 44.625C0.75 45.3709 1.04632 46.0863 1.57376 46.6137C2.10121 47.1412 2.81658 47.4375 3.5625 47.4375H50.4375C51.1779 47.4292 51.8852 47.1292 52.4059 46.6026C52.9265 46.0761 53.2185 45.3655 53.2185 44.625C53.2185 43.8845 52.9265 43.1739 52.4059 42.6474C51.8852 42.1208 51.1779 41.8208 50.4375 41.8125ZM5.4375 3.375C5.43782 3.12646 5.5367 2.88819 5.71244 2.71244C5.88819 2.5367 6.12646 2.43782 6.375 2.4375H47.625C47.8735 2.43782 48.1118 2.5367 48.2876 2.71244C48.4633 2.88819 48.5622 3.12646 48.5625 3.375V41.8125H46.6875V5.25C46.684 5.06485 46.6272 4.88463 46.5238 4.73102C46.4203 4.57741 46.2747 4.45693 46.1045 4.38409C45.0313 4.2312 8.97673 4.25018 7.89666 4.38376C7.72615 4.45646 7.58028 4.57691 7.47664 4.7306C7.37299 4.88429 7.31599 5.06466 7.3125 5.25V41.8125H5.4375V3.375ZM9.1875 24.9375H15.0002V39.327L9.1875 41.4165V24.9375ZM16.8752 24.9375H22.3125V36.6984L16.8752 38.653V24.9375ZM22.3125 23.0625H16.8752V9.34704L22.3125 11.3016V23.0625ZM15.0002 23.0625H9.1875V6.58346L15.0002 8.67298V23.0625ZM23.5672 38.2397C23.7489 38.1744 23.9059 38.0547 24.017 37.8968C24.128 37.7389 24.1875 37.5506 24.1875 37.3575V10.6425C24.1875 10.4495 24.128 10.2612 24.017 10.1033C23.9059 9.94541 23.7489 9.82566 23.5672 9.7604L13.6288 6.1875H40.3712L30.4328 9.76031C30.2511 9.82558 30.094 9.94534 29.983 10.1032C29.872 10.2611 29.8124 10.4495 29.8125 10.6425V37.3576C29.8125 37.5506 29.872 37.7389 29.983 37.8968C30.0941 38.0547 30.2511 38.1744 30.4328 38.2397L40.3712 41.8125H13.6288L23.5672 38.2397ZM44.8125 23.0625H38.9998V8.67298L44.8125 6.58346V23.0625ZM37.1248 23.0625H31.6875V11.3016L37.1248 9.34704V23.0625ZM31.6875 24.9375H37.1248V38.653L31.6875 36.6984V24.9375ZM38.9998 24.9375H44.8125V41.4165L38.9998 39.327V24.9375ZM50.4375 45.5625H3.5625C3.31637 45.5587 3.08162 45.4582 2.90893 45.2828C2.73623 45.1074 2.63943 44.8711 2.63944 44.625C2.63945 44.3788 2.73625 44.1425 2.90896 43.9671C3.08167 43.7917 3.31643 43.6913 3.56256 43.6875H50.4375C50.6835 43.6915 50.9181 43.792 51.0907 43.9674C51.2633 44.1428 51.36 44.3789 51.36 44.625C51.36 44.8711 51.2633 45.1072 51.0907 45.2826C50.9181 45.458 50.6835 45.5585 50.4375 45.5625Z" fill="#E5DA38"/>
</svg>
