<svg width="60" height="60" viewBox="0 0 60 60" fill="none" xmlns="http://www.w3.org/2000/svg">
<path d="M17.2825 51.6706C17.4583 51.8464 17.6967 51.9452 17.9453 51.9453H51.0709C51.194 51.9453 51.316 51.9211 51.4297 51.874C51.5435 51.8269 51.6468 51.7579 51.7339 51.6708C51.821 51.5837 51.89 51.4804 51.9371 51.3666C51.9842 51.2529 52.0084 51.1309 52.0084 51.0078V13.5078C52.0084 13.3847 51.9842 13.2628 51.9371 13.149C51.89 13.0353 51.821 12.9319 51.7339 12.8448C51.6468 12.7578 51.5435 12.6887 51.4297 12.6416C51.316 12.5945 51.194 12.5703 51.0709 12.5703H17.9604C17.8373 12.5703 17.7154 12.5945 17.6016 12.6416C17.4879 12.6887 17.3845 12.7578 17.2974 12.8448C17.2104 12.9319 17.1413 13.0353 17.0942 13.149C17.0471 13.2628 17.0229 13.3847 17.0229 13.5078L17.0193 22.4981C17.0193 22.5375 17.0117 41.2344 17.0118 41.2676L17.0078 51.0078C17.0078 51.1309 17.032 51.2528 17.0792 51.3666C17.1263 51.4803 17.1954 51.5836 17.2825 51.6706ZM36.5589 14.4453V21.5608H29.9964C29.7508 21.5654 29.5169 21.6663 29.3449 21.8416C29.1729 22.0169 29.0765 22.2527 29.0765 22.4983C29.0766 22.7439 29.1729 22.9797 29.3449 23.155C29.517 23.3303 29.7509 23.4311 29.9965 23.4358H36.5589V26.2483C36.5636 26.4938 36.6644 26.7277 36.8397 26.8998C37.015 27.0718 37.2508 27.1681 37.4964 27.1681C37.742 27.1681 37.9778 27.0717 38.1531 26.8997C38.3284 26.7277 38.4292 26.4938 38.4339 26.2482C38.4347 23.8001 38.4333 16.978 38.4339 14.4453H50.1334V32.8108H38.4339V30.9358C38.4291 30.6903 38.3282 30.4565 38.1529 30.2846C37.9776 30.1127 37.7419 30.0164 37.4964 30.0164C37.2508 30.0164 37.0151 30.1127 36.8398 30.2846C36.6645 30.4565 36.5637 30.6903 36.5589 30.9358V33.7483C36.5589 33.8714 36.5831 33.9933 36.6302 34.1071C36.6773 34.2208 36.7464 34.3242 36.8334 34.4112C36.9205 34.4983 37.0238 34.5674 37.1376 34.6145C37.2513 34.6616 37.3733 34.6858 37.4964 34.6858H50.1334V40.3108H46.1591C45.9128 40.3142 45.6777 40.4145 45.5047 40.59C45.3317 40.7654 45.2348 41.0019 45.2348 41.2483C45.2348 41.4946 45.3317 41.7311 45.5047 41.9065C45.6777 42.082 45.9128 42.1823 46.1591 42.1858H50.1334V50.0703H38.4339V42.1858H41.2464C41.4919 42.181 41.7257 42.0801 41.8976 41.9048C42.0695 41.7295 42.1658 41.4938 42.1658 41.2482C42.1658 41.0027 42.0695 40.767 41.8975 40.5917C41.7256 40.4164 41.4918 40.3155 41.2463 40.3108H27.1839C26.9377 40.3144 26.7028 40.4148 26.5299 40.5902C26.3571 40.7656 26.2602 41.002 26.2602 41.2483C26.2602 41.4945 26.3571 41.7309 26.53 41.9063C26.7028 42.0817 26.9377 42.1821 27.1839 42.1858H36.5589V50.0703H18.8833L18.8864 42.1858H22.4964C22.742 42.1812 22.9761 42.0805 23.1482 41.9051C23.3203 41.7298 23.4168 41.4939 23.4167 41.2482C23.4167 41.0026 23.3203 40.7667 23.1482 40.5914C22.9761 40.416 22.742 40.3153 22.4964 40.3108H18.8872L18.8939 23.4358H25.3089C25.5551 23.4321 25.79 23.3317 25.9629 23.1563C26.1357 22.9809 26.2326 22.7445 26.2326 22.4983C26.2326 22.252 26.1357 22.0156 25.9629 21.8402C25.79 21.6648 25.5551 21.5644 25.3089 21.5608H18.8946L18.8974 14.4453H36.5589Z" fill="#E5DA38"/>
<path d="M55.3125 8.27057H14.5848C13.3365 1.80367 3.90047 2.53773 3.75 9.20819V50.7932C3.75161 52.2401 4.3271 53.6273 5.35023 54.6504C6.37335 55.6735 7.76054 56.249 9.20746 56.2506H55.3125C55.4356 56.2506 55.5575 56.2264 55.6713 56.1793C55.7851 56.1322 55.8884 56.0632 55.9755 55.9761C56.0625 55.889 56.1316 55.7857 56.1787 55.6719C56.2258 55.5582 56.25 55.4362 56.25 55.3131V9.20807C56.25 9.08494 56.2258 8.96302 56.1787 8.84926C56.1316 8.73551 56.0625 8.63214 55.9755 8.54508C55.8884 8.45802 55.7851 8.38897 55.6713 8.34186C55.5575 8.29476 55.4356 8.27054 55.3125 8.27057ZM5.625 9.20807C5.63379 8.26365 6.01512 7.36089 6.68606 6.69618C7.357 6.03146 8.26327 5.65855 9.20773 5.65856C10.1522 5.65857 11.0584 6.0315 11.7294 6.69624C12.4003 7.36097 12.7816 8.26373 12.7904 9.20815V46.6797C11.7927 45.8242 10.5219 45.354 9.20767 45.354C7.89346 45.354 6.62263 45.8243 5.625 46.6798V9.20807ZM54.375 54.3756H9.20746C8.49894 54.3755 7.80635 54.1653 7.21728 53.7716C6.6282 53.3779 6.1691 52.8184 5.89803 52.1638C5.62695 51.5092 5.55607 50.7889 5.69435 50.094C5.83263 49.3991 6.17387 48.7608 6.6749 48.2598C7.17593 47.7588 7.81427 47.4177 8.50918 47.2795C9.2041 47.1413 9.92439 47.2123 10.579 47.4834C11.2336 47.7546 11.793 48.2138 12.1867 48.8029C12.5803 49.392 12.7904 50.0846 12.7904 50.7932C12.7952 51.0386 12.8961 51.2724 13.0714 51.4443C13.2467 51.6162 13.4824 51.7125 13.7279 51.7125C13.9734 51.7125 14.2092 51.6162 14.3844 51.4443C14.5597 51.2724 14.6606 51.0386 14.6654 50.7931V10.1456H54.375V54.3756Z" fill="#E5DA38"/>
</svg>
