<svg width="60" height="60" viewBox="0 0 60 60" fill="none" xmlns="http://www.w3.org/2000/svg">
<path d="M55.3125 8.30469H18.8626C18.7395 8.30462 18.6175 8.32882 18.5038 8.37591C18.39 8.42299 18.2866 8.49205 18.1995 8.57912C18.1125 8.66619 18.0434 8.76956 17.9963 8.88334C17.9492 8.99711 17.925 9.11905 17.9251 9.24219V15.3918H11.7746C11.6515 15.3917 11.5295 15.4159 11.4157 15.463C11.302 15.5101 11.1986 15.5791 11.1115 15.6662C11.0245 15.7533 10.9554 15.8567 10.9083 15.9704C10.8612 16.0842 10.837 16.2062 10.8371 16.3293V22.4798H4.6875C4.56437 22.4797 4.44243 22.5039 4.32865 22.551C4.21488 22.5981 4.1115 22.6672 4.02443 22.7542C3.93736 22.8413 3.86831 22.9447 3.82122 23.0584C3.77413 23.1722 3.74993 23.2942 3.75 23.4173V50.754C3.74993 50.8772 3.77413 50.9991 3.82122 51.1129C3.86831 51.2267 3.93736 51.33 4.02443 51.4171C4.1115 51.5042 4.21488 51.5732 4.32865 51.6203C4.44243 51.6674 4.56437 51.6916 4.6875 51.6915H41.1374C41.2605 51.6916 41.3825 51.6674 41.4962 51.6203C41.61 51.5732 41.7134 51.5042 41.8005 51.4171C41.8875 51.33 41.9566 51.2267 42.0037 51.1129C42.0508 50.9991 42.075 50.8772 42.0749 50.754V44.6044H48.2254C48.3485 44.6045 48.4705 44.5803 48.5843 44.5332C48.698 44.4861 48.8014 44.4171 48.8885 44.33C48.9755 44.2429 49.0446 44.1396 49.0917 44.0258C49.1388 43.912 49.163 43.7901 49.1629 43.6669V37.5164H55.3125C55.4356 37.5165 55.5576 37.4923 55.6714 37.4452C55.7851 37.3981 55.8885 37.3291 55.9756 37.242C56.0626 37.1549 56.1317 37.0515 56.1788 36.9378C56.2259 36.824 56.2501 36.7021 56.25 36.5789V9.24219C56.2501 9.11905 56.2259 8.99711 56.1788 8.88334C56.1317 8.76956 56.0626 8.66619 55.9756 8.57912C55.8885 8.49205 55.7851 8.423 55.6713 8.37591C55.5576 8.32882 55.4356 8.30462 55.3125 8.30469ZM40.1999 49.8165H5.625V24.3548H40.1999V49.8165ZM47.2879 42.7294H42.0749V23.4173C42.075 23.2942 42.0508 23.1722 42.0037 23.0584C41.9566 22.9447 41.8875 22.8413 41.8005 22.7542C41.7134 22.6672 41.61 22.5981 41.4962 22.551C41.3825 22.5039 41.2605 22.4797 41.1374 22.4798H12.7121V17.2668H47.2879V42.7294ZM54.375 35.6414H49.1629V16.3293C49.163 16.2062 49.1388 16.0842 49.0917 15.9704C49.0446 15.8567 48.9755 15.7533 48.8885 15.6662C48.8014 15.5791 48.698 15.5101 48.5843 15.463C48.4705 15.4159 48.3485 15.3917 48.2254 15.3918H19.8001V10.1797H54.375V35.6414Z" fill="#E5DA38"/>
</svg>
